<?xml version="1.0" encoding="utf-8"?>
<!-- Generator: Adobe Illustrator 23.0.0, SVG Export Plug-In . SVG Version: 6.00 Build 0)  -->
<svg version="1.1" id="Capa_1" xmlns="http://www.w3.org/2000/svg" xmlns:xlink="http://www.w3.org/1999/xlink" x="0px" y="0px"
	 width="95px" height="95px" viewBox="0 0 95 95" style="enable-background:new 0 0 95 95;" xml:space="preserve">
<style type="text/css">
	.st0{fill:#FFFFFF;}
	.st1{fill:#E8EAE9;}
	.st2{fill:#344A5E;}
	.st3{fill:#415A6B;}
	.st4{fill:#EC407A;}
	.st5{fill:#A84063;}
	.st6{fill:#F3705A;}
	.st7{fill:#F05540;}
	.st8{fill:#FFD15C;}
	.st9{fill:#F7B64C;}
	.st10{fill:#8AD7F8;}
	.st11{fill:#55C0EB;}
</style>
<g>
	<g transform="matrix(1, 0, 0, 1, -857.19, -329.52)">
		<path id="Path_16734-2" class="st0" d="M904.7,330c26,0,47,21,47,47c0,26-21,47-47,47s-47-21-47-47
			C857.7,351.1,878.7,330,904.7,330z"/>
	</g>
	<g id="Group_12022" transform="translate(79.535 -42.465)">
		<g id="Group_12019" transform="translate(0)">
			<path id="Path_16720" class="st1" d="M-17.9,75.4l-10.8,11.4l-10.7-4l-7.6,7.9c-0.4,0.4-0.4,1,0,1.3s1,0.4,1.3,0l0,0l6.8-7.1
				l10.8,4.1l11.5-12.4C-17.3,76.6-17.9,76.1-17.9,75.4z"/>
			
				<rect id="Rectangle_13734" x="-28.8" y="96.6" transform="matrix(0.7071 -0.7071 0.7071 0.7071 -78.45 12.0569)" class="st2" width="8.3" height="8.3"/>
			<path id="Path_16721" class="st3" d="M-25.7,99.7c-6.8,6.8-17.8,6.8-24.6,0s-6.8-17.8,0-24.6c6.8-6.8,17.8-6.8,24.6,0
				C-18.9,81.9-18.9,92.9-25.7,99.7z M-47.5,77.9c-5.2,5.2-5.2,13.7,0,19s13.7,5.2,19,0c5.2-5.2,5.2-13.7,0-19
				C-33.7,72.6-42.2,72.6-47.5,77.9C-47.5,77.9-47.5,77.9-47.5,77.9z"/>
			<path id="Path_16722" class="st4" d="M-11.3,114.1L-11.3,114.1c-2.3,2.3-6,2.3-8.3,0l-7.6-7.6l8.3-8.3l7.6,7.6
				C-9,108.1-9,111.8-11.3,114.1z"/>
			<path id="Path_16735" class="st5" d="M-27.3,106.4l8.4-8.4l2.8,2.8l-8.4,8.4L-27.3,106.4z"/>
			<path id="Path_16723" class="st1" d="M-17.6,99.5l-8.3,8.3c-0.8,0.8-2,0.8-2.8,0c-0.8-0.8-0.8-2,0-2.8c0,0,0,0,0,0l8.3-8.3
				c0.8-0.8,2-0.8,2.8,0C-16.8,97.4-16.8,98.7-17.6,99.5C-17.5,99.5-17.5,99.5-17.6,99.5z"/>
			<circle id="Ellipse_246" class="st6" cx="-17.4" cy="76" r="3"/>
			<circle id="Ellipse_247" class="st7" cx="-17.4" cy="76" r="1.7"/>
			<circle id="Ellipse_248" class="st8" cx="-28.3" cy="88" r="3"/>
			<circle id="Ellipse_249" class="st9" cx="-28.3" cy="88" r="1.7"/>
			<circle id="Ellipse_250" class="st10" cx="-39.1" cy="84" r="3"/>
			<circle id="Ellipse_251" class="st11" cx="-39.1" cy="84" r="1.7"/>
		</g>
	</g>
</g>
</svg>
