<?xml version="1.0" encoding="utf-8"?>
<!-- Generator: Adobe Illustrator 23.0.0, SVG Export Plug-In . SVG Version: 6.00 Build 0)  -->
<svg version="1.1" id="Layer_1" xmlns="http://www.w3.org/2000/svg" xmlns:xlink="http://www.w3.org/1999/xlink" x="0px" y="0px"
	 width="141px" height="34px" viewBox="0 0 141 34" style="enable-background:new 0 0 141 34;" xml:space="preserve">
<style type="text/css">
	.st0{enable-background:new    ;}
	.st1{fill:#415A6B;}
	.st2{fill:#E8EAE9;}
	.st3{fill:#344A5E;}
	.st4{fill:#EC407A;}
	.st5{fill:#A84063;}
	.st6{fill:#F3705A;}
	.st7{fill:#F05540;}
	.st8{fill:#FFD15C;}
	.st9{fill:#F7B64C;}
	.st10{fill:#8AD7F8;}
	.st11{fill:#55C0EB;}
</style>
<g id="Group_12039">
	<g id="Group_11922" transform="translate(-2 2)">
		<g id="Group_11881">
			<g class="st0">
				<path class="st1" d="M48.8,19.2h-4.6l-0.9,2.6h-2.8L45.2,9h2.4l4.8,12.8h-2.8L48.8,19.2z M44.9,17.1h3.2l-1.6-4.8L44.9,17.1z"/>
				<path class="st1" d="M58.2,13.4L60.6,9h3L60,15.4l3.8,6.5h-3.1l-2.5-4.5l-2.5,4.5h-3.1l3.8-6.5L52.8,9h3L58.2,13.4z"/>
				<path class="st1" d="M76.8,19.2h-4.6l-0.9,2.6h-2.8L73.3,9h2.4l4.8,12.8h-2.8L76.8,19.2z M72.9,17.1h3.2l-1.6-4.8L72.9,17.1z"/>
				<path class="st1" d="M83.4,12.3l0.1,1.1c0.7-0.8,1.6-1.3,2.7-1.3c1,0,1.8,0.3,2.2,0.9s0.7,1.5,0.8,2.7v6.1h-2.5v-6.1
					c0-0.5-0.1-0.9-0.4-1.2c-0.2-0.2-0.6-0.4-1.2-0.4c-0.7,0-1.3,0.3-1.6,0.9v6.7h-2.5v-9.5H83.4z"/>
				<path class="st1" d="M96.7,21.8c-0.1-0.2-0.2-0.5-0.3-0.9c-0.6,0.7-1.4,1-2.4,1c-0.9,0-1.7-0.3-2.3-0.8s-0.9-1.2-0.9-2
					c0-1,0.4-1.8,1.1-2.3c0.7-0.5,1.8-0.8,3.2-0.8h1.2v-0.5c0-0.4-0.1-0.8-0.3-1.1S95.4,14,94.9,14c-0.4,0-0.8,0.1-1,0.3
					s-0.4,0.5-0.4,0.8H91c0-0.6,0.2-1.1,0.5-1.5s0.8-0.8,1.4-1.1s1.3-0.4,2.1-0.4c1.2,0,2.1,0.3,2.8,0.9c0.7,0.6,1,1.4,1,2.5v4.1
					c0,0.9,0.1,1.6,0.4,2v0.1H96.7z M94.6,20.1c0.4,0,0.7-0.1,1-0.3c0.3-0.2,0.6-0.4,0.7-0.7v-1.6h-0.9c-1.3,0-1.9,0.4-2,1.3l0,0.1
					c0,0.3,0.1,0.6,0.3,0.8S94.2,20.1,94.6,20.1z"/>
				<path class="st1" d="M103.5,21.8H101V8.3h2.5V21.8z"/>
				<path class="st1" d="M109.2,18.2l1.8-5.9h2.7l-3.8,11l-0.2,0.5c-0.6,1.2-1.5,1.9-2.8,1.9c-0.4,0-0.7-0.1-1.1-0.2v-1.9l0.4,0
					c0.5,0,0.8-0.1,1.1-0.2c0.2-0.1,0.4-0.4,0.6-0.7l0.3-0.8l-3.3-9.5h2.7L109.2,18.2z"/>
				<path class="st1" d="M117.7,10v2.3h1.6v1.9h-1.6v4.7c0,0.4,0.1,0.6,0.2,0.8s0.4,0.2,0.8,0.2c0.3,0,0.5,0,0.7-0.1v1.9
					c-0.5,0.2-1,0.2-1.5,0.2c-1.8,0-2.7-0.9-2.7-2.7v-5.1h-1.4v-1.9h1.4V10H117.7z"/>
				<path class="st1" d="M120.7,9.9c0-0.4,0.1-0.7,0.4-0.9c0.3-0.2,0.6-0.4,1-0.4c0.4,0,0.8,0.1,1,0.4s0.4,0.6,0.4,0.9
					c0,0.4-0.1,0.7-0.4,0.9s-0.6,0.4-1,0.4s-0.8-0.1-1-0.4C120.8,10.6,120.7,10.2,120.7,9.9z M123.4,21.8h-2.5v-9.5h2.5V21.8z"/>
				<path class="st1" d="M129.5,20c0.5,0,0.8-0.1,1.1-0.4s0.4-0.6,0.5-1h2.4c0,0.6-0.2,1.2-0.5,1.8c-0.3,0.5-0.8,1-1.4,1.2
					c-0.6,0.3-1.3,0.4-2,0.4c-1.4,0-2.4-0.4-3.2-1.3c-0.8-0.9-1.2-2.1-1.2-3.6V17c0-1.5,0.4-2.6,1.2-3.5s1.8-1.3,3.2-1.3
					c1.2,0,2.1,0.3,2.9,1c0.7,0.7,1.1,1.6,1.1,2.7h-2.4c0-0.5-0.2-0.9-0.5-1.2s-0.7-0.5-1.2-0.5c-0.6,0-1,0.2-1.3,0.6
					c-0.3,0.4-0.5,1.1-0.5,2.1v0.3c0,1,0.1,1.7,0.4,2.1S128.8,20,129.5,20z"/>
				<path class="st1" d="M140,19.2c0-0.3-0.2-0.6-0.5-0.7c-0.3-0.2-0.8-0.3-1.5-0.5c-2.3-0.5-3.4-1.4-3.4-2.9c0-0.8,0.3-1.5,1.1-2.1
					c0.7-0.6,1.6-0.8,2.7-0.8c1.2,0,2.2,0.3,2.9,0.9c0.7,0.6,1.1,1.3,1.1,2.2h-2.5c0-0.4-0.1-0.7-0.4-0.9c-0.2-0.2-0.6-0.4-1.1-0.4
					c-0.4,0-0.8,0.1-1,0.3s-0.4,0.4-0.4,0.7c0,0.3,0.1,0.5,0.4,0.7c0.3,0.2,0.7,0.3,1.3,0.4s1.2,0.3,1.6,0.4c1.3,0.5,2,1.3,2,2.6
					c0,0.9-0.4,1.6-1.1,2.1c-0.7,0.5-1.7,0.8-2.9,0.8c-0.8,0-1.5-0.1-2.1-0.4c-0.6-0.3-1.1-0.7-1.5-1.2c-0.4-0.5-0.5-1-0.5-1.6h2.4
					c0,0.5,0.2,0.8,0.5,1s0.7,0.4,1.2,0.4c0.5,0,0.9-0.1,1.1-0.3C139.9,19.7,140,19.5,140,19.2z"/>
			</g>
		</g>
	</g>
	<g id="Group_12022" transform="translate(-702.465 -267.465)">
		<g id="Group_12019" transform="translate(717 281)">
			<path id="Path_16720" class="st2" d="M12.7-9.3L4.8-1l-7.8-2.9l-5.5,5.8c-0.3,0.3-0.3,0.7,0,1c0.3,0.3,0.7,0.3,1,0l4.9-5.1l7.8,3
				l8.4-9C13.1-8.4,12.7-8.8,12.7-9.3z"/>
			
				<rect id="Rectangle_13734" x="4.7" y="6.1" transform="matrix(0.7071 -0.7071 0.7071 0.7071 -4.2058 8.1708)" class="st3" width="6" height="6"/>
			<path id="Path_16721" class="st1" d="M7,8.4c-4.9,4.9-12.9,4.9-17.9,0s-4.9-12.9,0-17.9c4.9-4.9,12.9-4.9,17.9,0
				C12-4.5,12,3.5,7,8.4z M-8.8-7.5c-3.8,3.8-3.8,10,0,13.8s10,3.8,13.8,0s3.8-10,0-13.8c0,0,0,0,0,0C1.2-11.3-5-11.3-8.8-7.5
				C-8.8-7.5-8.8-7.5-8.8-7.5z"/>
			<path id="Path_16722" class="st4" d="M17.5,18.9L17.5,18.9c-1.7,1.7-4.4,1.7-6,0l-5.5-5.5l6-6l5.5,5.5
				C19.2,14.5,19.2,17.2,17.5,18.9z"/>
			
				<rect id="Rectangle_13735" x="5.7" y="9.9" transform="matrix(0.7071 -0.7071 0.7071 0.7071 -5.0865 10.3508)" class="st5" width="8.6" height="2.9"/>
			<path id="Path_16723" class="st2" d="M12.9,8.3l-6,6c-0.6,0.6-1.5,0.6-2,0s-0.6-1.5,0-2l6-6c0.6-0.6,1.5-0.6,2,0
				S13.5,7.7,12.9,8.3z"/>
			<circle id="Ellipse_246" class="st6" cx="13.1" cy="-8.9" r="2.1"/>
			<circle id="Ellipse_247" class="st7" cx="13.1" cy="-8.9" r="1.2"/>
			<circle id="Ellipse_248" class="st8" cx="5.1" cy="-0.1" r="2.1"/>
			<circle id="Ellipse_249" class="st9" cx="5.1" cy="-0.1" r="1.2"/>
			<circle id="Ellipse_250" class="st10" cx="-2.7" cy="-3" r="2.1"/>
			<circle id="Ellipse_251" class="st11" cx="-2.7" cy="-3" r="1.2"/>
		</g>
	</g>
</g>
</svg>
